<svg id="svg" version="1.1" xmlns="http://www.w3.org/2000/svg" xmlns:xlink="http://www.w3.org/1999/xlink" width="400" height="400" viewBox="0, 0, 400,400"><g id="svgg"><path id="path0" d="M195.556 84.319 C 105.352 87.914,53.802 189.130,103.901 264.277 C 149.498 332.669,250.502 332.669,296.099 264.277 C 348.369 185.873,289.538 80.574,195.556 84.319 M189.198 143.149 C 191.163 144.064,191.184 144.065,193.087 143.423 C 196.295 142.341,200.514 142.536,203.181 143.889 L 205.370 145.000 207.037 144.190 C 210.583 142.467,214.965 142.834,219.165 145.204 L 221.114 146.304 222.528 145.411 C 226.715 142.768,230.653 142.739,234.371 145.322 C 236.957 147.119,236.962 147.014,233.925 154.150 C 225.154 174.752,223.273 179.322,223.479 179.529 C 223.606 179.655,227.410 179.924,231.934 180.127 L 240.158 180.496 239.066 181.266 C 233.579 185.139,234.351 185.588,245.510 185.011 L 251.575 184.697 250.232 186.649 C 247.356 190.830,249.071 191.480,259.461 190.147 C 262.007 189.820,264.502 189.657,265.007 189.783 L 265.923 190.013 264.264 192.051 C 260.703 196.423,260.834 197.665,264.815 197.270 C 269.693 196.786,278.941 196.225,279.118 196.402 C 279.224 196.508,278.550 197.357,277.619 198.288 C 274.103 201.804,275.387 202.300,284.485 200.940 C 292.451 199.750,292.795 199.803,290.759 201.922 C 286.053 206.819,292.104 206.928,308.309 202.238 C 309.722 201.829,310.930 201.547,310.994 201.611 C 311.058 201.676,308.236 204.554,304.722 208.008 C 270.804 241.346,245.424 249.364,222.407 234.013 C 220.778 232.926,219.249 231.911,219.010 231.757 C 218.727 231.574,218.156 232.220,217.373 233.609 C 213.699 240.124,208.987 245.780,205.412 247.967 C 203.746 248.985,203.430 249.430,201.460 253.519 L 199.318 257.963 198.530 256.111 C 198.096 255.093,197.290 253.186,196.739 251.875 C 195.830 249.712,195.530 249.370,193.516 248.196 C 189.422 245.809,185.141 240.643,181.892 234.167 C 180.510 231.413,180.764 231.464,178.392 233.459 C 158.101 250.523,132.316 242.160,94.630 206.292 C 88.946 200.883,88.285 200.138,89.493 200.500 C 93.898 201.823,106.229 204.077,109.018 204.068 C 112.726 204.057,112.622 202.968,108.644 200.129 C 104.522 197.188,107.622 197.031,118.519 199.628 C 126.648 201.566,127.632 200.950,123.397 196.574 L 121.695 194.815 123.595 194.815 C 124.641 194.815,127.423 195.231,129.779 195.741 C 138.411 197.607,139.945 196.551,136.254 191.281 C 134.372 188.594,134.116 188.680,141.081 189.637 C 150.641 190.950,152.451 189.792,148.199 185.086 C 146.527 183.234,146.249 183.272,154.074 184.285 C 167.819 186.064,170.641 185.260,163.935 181.475 C 162.789 180.829,161.772 180.171,161.675 180.013 C 161.577 179.855,164.952 179.263,169.175 178.698 C 173.397 178.132,176.910 177.621,176.982 177.562 C 177.053 177.504,174.092 170.756,170.400 162.567 C 162.918 145.969,162.982 146.209,165.391 143.796 C 167.047 142.137,169.817 142.115,174.501 143.723 L 177.794 144.854 178.872 144.086 C 181.870 141.952,185.850 141.590,189.198 143.149 " stroke="none" fill="#240c74" fill-rule="evenodd"></path><path id="path1" d="M186.667 42.222 L 186.667 55.556 194.815 55.556 L 202.963 55.556 202.963 52.593 L 202.963 49.630 198.333 49.630 L 193.704 49.630 193.704 47.419 L 193.704 45.209 198.056 45.104 L 202.407 45.000 202.407 42.222 L 202.407 39.444 198.056 39.340 L 193.704 39.236 193.704 37.025 L 193.704 34.815 198.333 34.815 L 202.963 34.815 202.963 31.852 L 202.963 28.889 194.815 28.889 L 186.667 28.889 186.667 42.222 M211.100 29.176 C 211.094 29.324,210.362 35.278,209.474 42.407 C 208.586 49.537,207.907 55.422,207.964 55.485 C 208.120 55.655,212.228 56.204,216.772 56.662 C 226.423 57.635,231.847 54.122,233.331 45.938 C 235.037 36.529,230.052 31.471,217.439 29.816 C 215.079 29.506,212.690 29.175,212.130 29.080 C 211.569 28.985,211.106 29.028,211.100 29.176 M168.889 31.554 C 167.157 31.969,165.668 32.377,165.578 32.459 C 165.415 32.609,164.500 45.555,164.456 48.333 C 164.434 49.732,164.217 49.431,160.584 42.963 C 155.348 33.641,156.333 34.557,152.438 35.375 C 150.649 35.750,149.108 36.259,149.013 36.506 C 148.869 36.881,150.683 63.023,150.866 63.210 C 150.946 63.292,157.191 61.815,157.327 61.682 C 157.385 61.626,157.093 58.053,156.679 53.743 C 156.265 49.433,155.926 45.703,155.926 45.456 C 155.926 45.208,157.106 47.171,158.547 49.817 C 163.026 58.039,164.206 60.000,164.675 60.000 C 164.925 60.000,165.979 59.804,167.018 59.564 C 169.255 59.048,169.141 59.377,169.429 52.593 C 169.798 43.921,170.058 41.481,170.475 42.778 C 171.380 45.592,175.630 56.883,175.879 57.135 C 176.147 57.406,181.240 56.446,182.062 55.970 C 182.453 55.743,172.710 30.709,172.254 30.769 C 172.135 30.785,170.620 31.138,168.889 31.554 M221.126 36.520 C 226.074 37.990,227.780 43.597,224.687 48.227 C 223.145 50.537,215.932 52.072,215.923 50.093 C 215.921 49.736,216.280 46.403,216.720 42.685 C 217.632 34.992,217.343 35.397,221.126 36.520 M130.000 43.901 C 125.655 45.767,122.798 47.194,122.829 47.483 C 122.881 47.967,132.336 70.373,132.864 71.263 C 133.079 71.625,134.904 70.992,140.370 68.661 C 144.343 66.967,147.725 65.531,147.888 65.470 C 148.228 65.342,145.949 60.000,145.554 60.000 C 145.410 60.000,143.577 60.750,141.481 61.667 C 136.836 63.698,137.297 63.721,136.338 61.415 C 135.402 59.160,135.222 59.380,139.444 57.613 C 143.744 55.813,143.611 56.013,142.403 53.171 C 141.182 50.297,141.674 50.391,137.453 52.222 C 132.841 54.222,133.301 54.386,131.606 50.145 C 131.514 49.914,132.873 49.123,134.703 48.340 C 136.496 47.574,138.412 46.717,138.961 46.437 L 139.959 45.928 138.813 43.334 C 138.183 41.908,137.567 40.754,137.445 40.770 C 137.322 40.786,133.972 42.195,130.000 43.901 M261.500 41.516 C 245.945 44.564,246.667 66.883,262.400 69.329 C 265.811 69.860,265.786 69.878,267.414 65.623 C 268.773 62.069,268.777 62.088,266.838 62.778 C 259.588 65.360,254.379 56.759,259.541 50.728 C 263.128 46.538,268.053 47.295,271.503 52.566 C 272.071 53.433,272.102 53.391,273.419 49.965 L 274.758 46.481 273.768 45.430 C 270.981 42.470,265.520 40.728,261.500 41.516 M283.052 51.365 C 282.647 51.938,279.661 56.491,276.415 61.481 C 273.170 66.472,270.217 71.007,269.854 71.560 L 269.193 72.564 272.051 74.430 C 275.645 76.776,275.015 77.030,278.401 71.871 L 281.306 67.445 285.317 70.033 C 287.801 71.636,289.258 72.803,289.145 73.098 C 289.044 73.360,287.779 75.369,286.333 77.563 C 284.887 79.757,283.706 81.661,283.708 81.795 C 283.716 82.197,289.201 85.637,289.614 85.499 C 290.011 85.366,304.080 63.856,304.066 63.404 C 304.057 63.128,298.627 59.628,298.213 59.632 C 298.076 59.633,296.720 61.546,295.200 63.883 C 292.567 67.933,292.401 68.108,291.657 67.621 C 291.228 67.339,289.430 66.166,287.661 65.013 C 283.822 62.510,283.883 63.418,287.205 58.323 L 289.967 54.088 287.318 52.375 C 283.866 50.142,283.909 50.152,283.052 51.365 M107.575 55.988 C 103.918 58.263,100.873 60.163,100.809 60.210 C 100.281 60.598,114.941 82.922,115.520 82.612 C 118.181 81.188,128.686 74.334,128.616 74.067 C 128.547 73.804,126.115 69.817,125.726 69.329 C 125.675 69.266,124.491 69.941,123.095 70.829 C 121.698 71.717,119.934 72.821,119.175 73.284 L 117.794 74.125 116.675 72.360 C 115.241 70.099,115.021 70.499,119.074 67.992 C 123.155 65.468,122.948 65.916,121.268 63.229 C 119.659 60.657,119.994 60.660,115.943 63.178 C 114.114 64.314,112.447 65.139,112.239 65.010 C 111.784 64.729,109.852 61.494,110.048 61.340 C 110.123 61.281,111.889 60.181,113.971 58.896 C 116.255 57.487,117.659 56.398,117.510 56.151 C 116.110 53.815,114.739 51.852,114.508 51.852 C 114.352 51.852,111.232 53.713,107.575 55.988 M302.813 80.095 L 293.705 89.815 296.205 92.148 L 298.704 94.481 302.054 90.944 C 303.896 88.999,305.500 87.407,305.616 87.407 C 305.733 87.407,305.247 89.948,304.537 93.053 L 303.246 98.698 306.128 101.417 C 309.538 104.633,309.272 104.863,310.338 97.778 C 311.365 90.948,311.219 91.327,312.568 92.024 C 318.451 95.066,325.885 86.477,322.335 80.740 C 321.532 79.441,314.220 71.987,312.719 70.936 C 311.946 70.394,311.624 70.692,302.813 80.095 M90.548 71.512 C 87.265 71.932,84.280 73.898,77.784 79.914 L 75.012 82.481 82.074 90.037 C 85.959 94.193,90.058 98.586,91.183 99.800 L 93.229 102.008 95.040 100.490 C 98.310 97.749,103.535 92.070,104.363 90.357 C 108.772 81.230,100.696 70.213,90.548 71.512 M93.438 78.651 C 98.789 80.907,100.177 86.818,96.306 90.875 L 94.532 92.735 91.433 89.425 C 89.728 87.605,87.461 85.186,86.394 84.048 L 84.455 81.981 85.468 81.017 C 88.128 78.486,91.015 77.629,93.438 78.651 M314.771 80.562 C 318.620 84.946,313.234 89.231,309.231 84.970 L 308.373 84.056 310.750 81.658 C 313.537 78.846,313.316 78.906,314.771 80.562 M64.265 95.562 L 59.176 101.865 60.051 102.554 C 60.532 102.932,65.171 106.679,70.360 110.880 C 75.548 115.081,79.885 118.519,79.998 118.519 C 80.111 118.519,82.486 115.696,85.275 112.247 L 90.346 105.975 88.599 104.552 C 87.638 103.769,86.581 102.921,86.250 102.668 C 85.729 102.270,85.264 102.686,82.804 105.743 C 81.000 107.987,79.799 109.182,79.517 109.015 C 79.274 108.870,78.454 108.258,77.696 107.656 L 76.318 106.560 77.401 105.225 C 77.996 104.490,79.243 102.945,80.171 101.792 L 81.859 99.696 79.726 97.999 C 77.076 95.891,77.595 95.743,74.662 99.444 C 71.817 103.034,71.929 102.987,69.978 101.419 C 68.123 99.928,68.097 100.067,70.842 96.721 C 72.120 95.163,73.370 93.622,73.620 93.295 C 74.016 92.778,70.443 89.259,69.522 89.259 C 69.429 89.259,67.063 92.096,64.265 95.562 M321.394 98.611 C 315.761 103.144,311.143 106.986,311.132 107.149 C 311.102 107.580,315.208 112.593,315.591 112.593 C 315.831 112.593,334.134 98.003,336.066 96.271 C 336.303 96.058,332.088 90.370,331.694 90.370 C 331.662 90.370,327.027 94.079,321.394 98.611 M337.222 106.645 C 331.280 108.093,329.937 111.174,331.917 118.812 L 332.713 121.884 331.968 122.886 C 329.343 126.418,325.266 122.171,326.246 116.927 L 326.571 115.185 323.478 115.185 C 319.868 115.185,319.761 115.318,320.087 119.388 C 320.690 126.896,327.886 132.358,333.869 129.849 C 338.965 127.712,340.100 124.737,338.311 118.209 C 337.431 115.000,337.405 114.688,337.949 113.857 C 339.571 111.383,342.963 114.102,342.963 117.877 C 342.963 119.979,342.907 119.948,345.834 119.461 L 348.333 119.046 348.299 116.838 C 348.206 110.856,342.288 105.410,337.222 106.645 M54.239 113.291 C 53.412 113.666,52.155 114.653,51.445 115.483 C 50.122 117.027,44.596 127.312,44.916 127.633 C 45.167 127.883,68.290 139.626,68.537 139.628 C 68.823 139.630,71.657 133.754,71.459 133.569 C 71.370 133.486,69.404 132.472,67.091 131.316 C 64.777 130.160,62.953 129.146,63.035 129.063 C 63.118 128.981,65.639 128.748,68.638 128.548 C 75.152 128.111,74.454 128.481,76.515 124.377 C 78.538 120.349,78.996 120.700,72.778 121.514 C 65.119 122.517,65.556 122.587,65.556 120.356 C 65.556 114.913,59.286 110.999,54.239 113.291 M58.923 120.573 C 60.838 121.563,61.095 124.289,59.481 126.493 C 58.959 127.206,58.886 127.190,56.233 125.780 C 52.719 123.913,52.734 123.929,53.512 122.704 C 55.277 119.929,56.639 119.392,58.923 120.573 M350.185 124.877 C 348.963 125.503,347.917 126.054,347.861 126.103 C 347.805 126.151,348.263 127.256,348.879 128.559 C 349.495 129.861,349.996 131.093,349.992 131.296 C 349.988 131.500,345.905 133.563,340.918 135.881 C 335.932 138.199,331.852 140.238,331.852 140.412 C 331.852 140.654,334.241 145.845,334.714 146.630 C 334.764 146.712,337.765 145.396,341.384 143.706 C 345.002 142.016,349.184 140.072,350.677 139.387 L 353.391 138.141 354.545 140.737 C 355.179 142.165,355.874 143.333,356.090 143.333 C 356.458 143.333,361.122 141.223,361.426 140.920 C 361.802 140.544,353.551 123.705,352.999 123.722 C 352.674 123.731,351.407 124.251,350.185 124.877 M36.336 149.352 C 35.101 153.179,32.247 163.482,32.384 163.618 C 32.595 163.830,57.878 171.139,57.980 171.018 C 58.178 170.784,62.222 156.255,62.222 155.778 C 62.222 155.437,61.437 155.015,60.093 154.635 C 58.921 154.303,57.685 153.951,57.346 153.853 C 56.712 153.669,56.678 153.755,54.932 160.000 C 54.187 162.664,54.198 162.656,51.941 161.995 C 49.670 161.329,49.711 161.581,51.103 156.856 C 52.342 152.651,52.440 152.913,49.302 152.059 C 46.502 151.297,46.750 151.050,45.382 155.948 C 44.817 157.973,44.238 159.630,44.096 159.630 C 43.148 159.630,40.001 158.407,40.006 158.041 C 40.010 157.794,40.507 155.926,41.111 153.889 C 42.515 149.153,42.605 149.516,39.847 148.781 C 36.751 147.956,36.788 147.950,36.336 149.352 M350.370 151.931 C 343.750 153.979,338.284 155.695,338.223 155.746 C 337.939 155.983,340.221 162.593,340.587 162.593 C 341.236 162.593,365.341 155.159,365.603 154.878 C 366.126 154.318,363.895 148.336,363.138 148.271 C 362.736 148.237,356.991 149.884,350.370 151.931 M341.852 167.763 C 341.852 168.162,342.038 169.739,342.265 171.268 L 342.679 174.047 344.812 174.288 C 347.695 174.615,347.569 174.428,348.270 179.444 C 349.103 185.418,349.220 184.945,346.628 186.069 C 344.658 186.923,344.393 187.156,344.568 187.877 C 344.679 188.331,344.882 189.725,345.020 190.973 C 345.158 192.221,345.385 193.427,345.524 193.653 C 345.713 193.958,369.786 182.146,370.643 181.328 C 370.741 181.235,369.586 172.464,369.456 172.310 C 369.341 172.175,342.910 167.037,342.327 167.037 C 342.066 167.037,341.852 167.364,341.852 167.763 M30.240 177.278 C 29.821 182.229,29.273 181.674,35.058 182.160 C 37.840 182.394,40.145 182.629,40.180 182.682 C 40.348 182.935,39.413 191.829,39.195 192.043 C 39.058 192.178,36.759 192.086,34.087 191.839 C 28.345 191.308,29.023 190.886,28.704 195.187 L 28.444 198.707 41.722 199.863 C 49.025 200.499,55.036 200.990,55.080 200.954 C 55.124 200.919,55.272 199.297,55.409 197.351 L 55.657 193.813 53.847 193.590 C 52.852 193.468,50.492 193.255,48.603 193.117 C 44.463 192.815,44.794 193.326,45.264 187.955 C 45.740 182.521,45.126 182.970,51.276 183.559 C 54.116 183.831,56.485 184.008,56.541 183.953 C 56.917 183.577,57.091 176.667,56.724 176.667 C 56.492 176.667,50.688 176.167,43.828 175.556 C 36.967 174.944,31.157 174.444,30.917 174.444 C 30.639 174.444,30.391 175.481,30.240 177.278 M359.074 176.486 C 366.007 177.500,365.960 177.253,359.755 180.086 C 353.689 182.857,353.912 182.878,353.539 179.492 C 353.401 178.243,353.192 176.829,353.075 176.348 C 352.881 175.552,352.957 175.493,353.931 175.683 C 354.519 175.797,356.833 176.159,359.074 176.486 M345.182 199.722 C 345.180 200.588,345.076 202.152,344.950 203.198 L 344.722 205.099 348.194 205.378 C 350.104 205.531,354.167 205.758,357.222 205.884 L 362.778 206.111 360.370 207.260 C 359.046 207.891,354.880 210.357,351.111 212.738 C 343.524 217.533,343.809 217.194,343.665 221.605 L 343.578 224.259 354.845 225.067 C 361.041 225.512,367.045 225.887,368.186 225.901 L 370.260 225.926 370.488 222.703 C 370.613 220.931,370.626 219.392,370.518 219.283 C 370.263 219.028,359.179 218.202,355.556 218.167 L 352.778 218.141 355.741 216.669 C 360.920 214.096,371.239 207.303,371.525 206.278 C 371.761 205.431,371.963 200.013,371.759 199.989 C 370.930 199.894,346.613 198.162,346.019 198.156 C 345.284 198.149,345.185 198.335,345.182 199.722 M30.966 206.572 L 28.784 206.707 29.002 209.372 C 29.123 210.838,29.427 215.162,29.679 218.981 L 30.138 225.926 31.828 225.922 C 32.758 225.920,34.144 225.814,34.907 225.688 L 36.296 225.459 36.296 222.580 L 36.296 219.702 38.426 219.486 C 39.597 219.367,43.139 219.100,46.296 218.893 C 49.454 218.686,53.050 218.423,54.288 218.309 L 56.539 218.103 56.404 215.996 C 56.331 214.837,56.189 213.220,56.089 212.402 L 55.907 210.916 47.120 211.544 C 42.287 211.890,37.726 212.183,36.983 212.197 L 35.633 212.222 35.370 209.259 C 35.112 206.344,35.092 206.297,34.128 206.366 C 33.589 206.405,32.166 206.497,30.966 206.572 M49.972 245.157 C 48.509 246.619,48.560 248.127,50.194 251.712 C 51.848 255.342,51.478 255.763,48.658 253.461 C 44.595 250.143,42.678 249.643,40.724 251.389 C 39.092 252.847,38.834 255.021,40.115 256.507 L 41.051 257.593 45.524 257.593 C 50.903 257.593,51.043 257.796,47.214 260.050 C 42.759 262.672,41.855 264.552,43.887 266.967 C 46.687 270.295,50.382 268.126,51.655 262.408 C 52.306 259.481,53.122 258.719,53.540 260.648 C 54.227 263.825,55.264 266.612,56.024 267.325 C 58.884 270.013,63.926 267.095,62.464 263.598 C 61.960 262.390,60.858 261.517,56.850 259.149 C 54.505 257.763,54.856 257.593,60.061 257.593 C 66.257 257.593,68.415 255.007,65.037 251.630 C 62.933 249.526,61.649 249.812,56.852 253.454 C 54.004 255.616,53.684 255.217,55.333 251.564 C 57.526 246.707,56.628 244.074,52.778 244.074 C 51.367 244.074,50.858 244.270,49.972 245.157 M344.416 246.638 C 342.972 248.082,343.017 249.346,344.647 253.052 C 346.315 256.848,345.953 257.274,343.085 254.887 C 338.350 250.947,334.621 250.965,333.877 254.934 C 333.270 258.169,335.277 259.405,340.811 259.205 C 345.252 259.044,345.382 259.315,341.852 261.373 C 337.405 263.966,336.342 265.954,338.165 268.271 C 341.058 271.948,345.018 269.498,346.286 263.247 C 347.004 259.709,347.572 260.068,348.706 264.776 C 349.901 269.739,353.171 271.444,356.024 268.592 C 358.441 266.174,357.556 264.295,352.644 261.414 C 349.007 259.281,349.163 259.074,354.414 259.074 C 360.757 259.074,362.911 256.540,359.481 253.111 C 357.427 251.056,356.138 251.293,351.889 254.505 C 348.176 257.312,347.890 256.992,350.044 252.441 C 352.105 248.083,351.000 245.556,347.033 245.556 C 345.831 245.556,345.264 245.790,344.416 246.638 M71.667 283.089 C 59.470 287.124,56.952 301.563,67.252 308.402 L 69.223 309.711 72.203 307.355 C 75.672 304.614,75.671 304.616,73.611 304.289 C 67.831 303.370,65.827 296.098,70.278 292.191 C 75.817 287.327,82.704 290.044,82.649 297.071 C 82.632 299.219,82.617 299.223,86.296 296.183 C 89.016 293.936,89.074 293.687,87.608 290.486 C 84.873 284.512,77.587 281.131,71.667 283.089 M322.498 283.345 C 319.639 284.060,317.529 285.503,314.201 289.020 C 310.880 292.529,307.545 296.591,307.818 296.793 C 307.898 296.851,312.347 300.522,317.705 304.951 C 323.063 309.379,327.670 313.087,327.941 313.191 C 328.656 313.465,335.791 304.438,337.185 301.497 C 341.497 292.398,332.207 280.917,322.498 283.345 M325.684 290.400 C 330.966 291.866,332.951 297.507,329.798 302.086 C 328.113 304.532,329.031 304.854,322.655 299.575 C 316.214 294.241,316.585 294.877,318.692 292.770 C 321.283 290.179,322.907 289.629,325.684 290.400 M82.593 304.681 C 78.213 309.274,74.088 313.666,73.426 314.441 L 72.223 315.851 74.851 318.181 L 77.479 320.511 81.203 316.737 C 83.252 314.661,85.009 312.963,85.110 312.963 C 85.353 312.963,91.631 318.967,91.796 319.357 C 91.867 319.526,90.244 321.371,88.190 323.458 L 84.456 327.253 87.074 329.830 L 89.692 332.407 93.087 328.843 C 94.954 326.883,99.137 322.498,102.382 319.099 L 108.282 312.918 105.680 310.316 L 103.078 307.714 99.623 311.450 C 95.484 315.924,96.306 315.863,92.238 311.992 L 88.882 308.798 92.487 304.905 L 96.092 301.012 93.509 298.664 C 92.088 297.373,90.843 296.319,90.741 296.323 C 90.639 296.327,86.972 300.088,82.593 304.681 M302.778 304.201 C 286.967 309.445,289.366 331.878,305.741 331.913 C 321.006 331.945,326.033 311.196,312.287 304.896 C 309.776 303.746,305.168 303.409,302.778 304.201 M309.599 311.602 C 314.162 314.622,315.029 319.891,311.538 323.383 C 306.880 328.041,298.889 324.063,298.889 317.087 C 298.889 311.557,304.888 308.485,309.599 311.602 M105.390 321.394 C 96.663 335.078,96.519 338.138,104.352 343.477 C 113.903 349.989,116.280 348.590,128.621 329.190 L 129.961 327.083 127.038 325.208 C 125.430 324.177,124.038 323.333,123.944 323.333 C 123.849 323.333,121.882 326.288,119.571 329.899 C 113.466 339.441,112.018 340.699,108.963 339.109 C 104.731 336.907,105.042 335.340,111.791 324.876 C 114.065 321.350,115.926 318.388,115.926 318.294 C 115.926 318.101,110.287 314.442,110.000 314.449 C 109.898 314.452,107.823 317.577,105.390 321.394 M277.217 322.864 C 261.414 328.537,263.638 350.533,280.017 350.551 C 291.004 350.564,297.888 340.586,293.531 330.964 C 291.823 327.191,292.403 327.169,285.418 331.274 L 279.252 334.898 280.422 336.986 C 281.066 338.134,281.721 339.219,281.879 339.397 C 282.036 339.575,283.433 338.950,284.984 338.008 C 288.306 335.992,288.390 335.977,288.695 337.369 C 289.978 343.209,280.712 347.115,276.421 342.544 C 270.715 336.465,273.456 328.381,281.018 328.988 L 283.372 329.177 285.204 326.567 C 286.212 325.132,287.037 323.834,287.037 323.682 C 287.037 322.487,279.920 321.894,277.217 322.864 M132.075 329.185 C 130.822 331.610,121.481 351.986,121.481 352.296 C 121.481 352.730,126.952 355.281,127.352 355.034 C 127.514 354.934,128.536 352.925,129.623 350.571 C 130.709 348.216,131.665 346.356,131.746 346.437 C 131.874 346.566,132.923 356.041,132.952 357.340 C 132.963 357.825,139.928 361.307,140.247 360.987 C 140.339 360.895,139.988 358.214,139.466 355.028 C 138.945 351.842,138.519 349.074,138.519 348.877 C 138.519 348.680,139.394 348.518,140.463 348.517 C 147.312 348.510,150.559 338.474,145.066 334.285 C 143.968 333.447,137.592 330.275,133.938 328.748 C 132.611 328.194,132.585 328.200,132.075 329.185 M244.630 337.835 C 240.759 339.069,237.471 340.191,237.323 340.327 C 237.087 340.545,239.247 347.990,243.527 361.715 L 244.813 365.837 248.034 364.833 C 251.937 363.616,251.775 364.132,250.027 358.519 C 249.235 355.972,248.696 353.790,248.830 353.669 C 248.964 353.547,250.782 352.916,252.870 352.266 C 254.958 351.616,256.667 350.908,256.667 350.692 C 256.667 350.079,255.502 346.142,255.234 345.849 C 255.102 345.704,253.177 346.163,250.957 346.867 C 248.737 347.572,246.890 348.148,246.852 348.148 C 246.793 348.148,246.603 347.526,245.700 344.376 C 245.554 343.867,246.291 343.503,249.694 342.403 C 251.989 341.661,253.977 340.986,254.111 340.903 C 254.590 340.607,252.801 335.562,252.222 335.577 C 251.917 335.584,248.500 336.600,244.630 337.835 M138.406 337.021 C 143.100 339.883,139.756 345.401,134.756 343.046 L 133.400 342.407 134.824 339.352 C 136.353 336.071,136.593 335.915,138.406 337.021 M157.593 339.755 C 141.777 345.026,144.912 368.052,161.347 367.332 L 163.865 367.222 164.946 363.785 C 166.175 359.876,166.158 359.786,164.328 360.551 C 159.157 362.711,153.911 358.820,154.564 353.308 C 155.423 346.050,163.723 343.363,167.584 349.093 C 168.777 350.864,168.920 350.746,170.048 347.070 C 171.323 342.914,171.325 342.917,167.218 340.888 C 164.133 339.363,160.168 338.896,157.593 339.755 M173.917 342.639 C 173.709 343.268,170.360 367.362,170.366 368.192 C 170.370 368.763,176.816 369.974,177.296 369.494 C 177.387 369.403,177.797 367.022,178.208 364.202 C 178.619 361.381,179.002 359.027,179.058 358.969 C 179.492 358.525,188.516 360.184,188.496 360.704 C 188.484 361.030,188.171 363.380,187.801 365.926 C 187.431 368.472,187.233 370.659,187.360 370.786 C 187.588 371.013,194.132 371.927,194.285 371.754 C 194.328 371.706,195.135 366.083,196.080 359.259 C 197.024 352.435,197.874 346.497,197.968 346.064 C 198.129 345.325,197.916 345.247,194.594 344.829 C 190.341 344.294,190.921 343.714,190.157 349.264 C 189.370 354.991,189.779 354.632,184.677 354.064 C 179.236 353.457,179.604 353.936,180.407 348.519 C 180.783 345.972,181.096 343.704,181.102 343.477 C 181.107 343.249,180.159 342.954,178.981 342.816 C 177.810 342.680,176.230 342.469,175.469 342.349 C 174.474 342.191,174.039 342.272,173.917 342.639 M221.567 342.593 C 213.764 344.241,208.575 352.382,210.511 359.938 C 214.567 375.772,238.299 372.660,238.327 356.291 C 238.342 347.012,230.601 340.684,221.567 342.593 M226.771 349.019 C 229.752 350.272,231.818 354.205,231.337 357.711 C 230.356 364.871,221.440 366.568,218.319 360.189 C 215.132 353.675,220.613 346.432,226.771 349.019 " stroke="none" fill="#07953f" fill-rule="evenodd"></path><path id="path2" d="M180.370 0.749 C 151.289 3.587,125.214 12.083,98.535 27.413 C 89.907 32.370,77.097 41.659,68.161 49.438 C 64.557 52.575,53.791 63.309,50.335 67.212 C 49.438 68.225,48.395 69.391,48.018 69.804 C 42.286 76.085,31.626 91.215,26.093 100.926 C -8.936 162.401,-8.936 237.599,26.093 299.074 C 31.626 308.785,42.286 323.915,48.018 330.196 C 48.395 330.609,49.438 331.775,50.335 332.788 C 53.830 336.734,64.695 347.561,68.165 350.556 C 75.115 356.554,81.836 361.706,88.519 366.160 C 96.197 371.278,96.704 371.589,104.429 375.881 C 162.558 408.179,237.442 408.179,295.571 375.881 C 303.296 371.589,303.803 371.278,311.481 366.160 C 318.164 361.706,324.885 356.554,331.835 350.556 C 335.305 347.561,346.170 336.734,349.665 332.788 C 350.562 331.775,351.605 330.609,351.982 330.196 C 355.586 326.247,362.341 317.213,367.221 309.815 C 411.209 243.131,411.209 156.869,367.221 90.185 C 362.341 82.787,355.586 73.753,351.982 69.804 C 351.605 69.391,350.562 68.225,349.665 67.212 C 346.209 63.309,335.443 52.575,331.839 49.438 C 322.903 41.659,310.093 32.370,301.465 27.413 C 263.611 5.662,222.584 -3.372,180.370 0.749 M213.396 3.354 C 316.567 10.468,397.037 96.638,397.037 200.000 C 397.037 308.618,308.618 397.037,200.000 397.037 C 91.382 397.037,2.963 308.618,2.963 200.000 C 2.963 86.225,100.010 -4.464,213.396 3.354 M187.719 11.518 C 75.356 18.703,-6.002 123.288,14.302 234.444 C 31.283 327.410,116.998 394.448,211.296 388.513 C 335.016 380.727,418.203 257.960,379.234 140.672 C 352.174 59.225,273.315 6.045,187.719 11.518 M219.259 14.982 C 341.735 28.554,417.936 153.890,373.066 267.963 C 333.156 369.423,214.407 415.041,117.037 366.317 C 23.515 319.518,-13.301 204.543,35.852 112.778 C 66.582 55.407,122.423 19.432,188.704 14.303 C 193.237 13.952,214.163 14.417,219.259 14.982 M190.000 71.701 C 189.287 71.782,187.120 72.025,185.185 72.240 C 111.478 80.442,59.276 151.812,73.746 224.597 C 89.396 303.317,172.516 349.001,246.852 319.738 C 312.893 293.740,345.629 218.919,319.738 153.148 C 302.557 109.504,263.674 79.090,216.481 72.380 C 212.616 71.830,193.239 71.334,190.000 71.701 M212.037 74.853 C 303.229 83.206,355.173 185.867,307.915 264.347 C 258.753 345.990,141.247 345.990,92.085 264.347 C 39.266 176.632,109.631 65.472,212.037 74.853 " stroke="none" fill="#dc291c" fill-rule="evenodd"></path><path id="path3" d="M185.741 3.382 C 96.900 9.656,22.059 76.835,6.101 164.630 C -15.843 285.364,77.326 397.037,200.000 397.037 C 308.618 397.037,397.037 308.618,397.037 200.000 C 397.037 85.868,299.741 -4.669,185.741 3.382 M211.296 11.487 C 324.614 18.618,406.094 122.783,385.698 234.444 C 371.046 314.659,304.339 377.450,223.194 387.408 C 96.720 402.927,-8.621 291.051,14.302 165.556 C 31.282 72.592,117.000 5.552,211.296 11.487 M188.704 14.303 C 88.801 22.033,14.260 101.383,14.260 200.000 C 14.260 327.443,139.646 417.136,260.172 375.910 C 348.376 345.739,401.029 253.741,382.191 162.711 C 366.582 87.288,305.953 29.009,230.057 16.473 C 218.931 14.636,198.357 13.556,188.704 14.303 M202.963 31.852 L 202.963 34.815 198.333 34.815 L 193.704 34.815 193.704 37.025 L 193.704 39.236 198.056 39.340 L 202.407 39.444 202.407 42.222 L 202.407 45.000 198.056 45.104 L 193.704 45.209 193.704 47.419 L 193.704 49.630 198.333 49.630 L 202.963 49.630 202.963 52.593 L 202.963 55.556 194.815 55.556 L 186.667 55.556 186.667 42.222 L 186.667 28.889 194.815 28.889 L 202.963 28.889 202.963 31.852 M217.439 29.816 C 230.052 31.471,235.037 36.529,233.331 45.938 C 231.847 54.122,226.423 57.635,216.772 56.662 C 212.228 56.204,208.120 55.655,207.964 55.485 C 207.907 55.422,208.586 49.537,209.474 42.407 C 210.362 35.278,211.094 29.324,211.100 29.176 C 211.106 29.028,211.569 28.985,212.130 29.080 C 212.690 29.175,215.079 29.506,217.439 29.816 M177.464 43.241 C 180.610 51.116,182.311 55.825,182.062 55.970 C 181.240 56.446,176.147 57.406,175.879 57.135 C 175.630 56.883,171.380 45.592,170.475 42.778 C 170.058 41.481,169.798 43.921,169.429 52.593 C 169.141 59.377,169.255 59.048,167.018 59.564 C 165.979 59.804,164.925 60.000,164.675 60.000 C 164.206 60.000,163.026 58.039,158.547 49.817 C 157.106 47.171,155.926 45.208,155.926 45.456 C 155.926 45.703,156.265 49.433,156.679 53.743 C 157.093 58.053,157.385 61.626,157.327 61.682 C 157.191 61.815,150.946 63.292,150.866 63.210 C 150.683 63.023,148.869 36.881,149.013 36.506 C 149.108 36.259,150.649 35.750,152.438 35.375 C 156.333 34.557,155.348 33.641,160.584 42.963 C 164.217 49.431,164.434 49.732,164.456 48.333 C 164.500 45.555,165.415 32.609,165.578 32.459 C 165.712 32.336,171.526 30.864,172.254 30.769 C 172.373 30.753,174.717 36.366,177.464 43.241 M216.720 42.685 C 216.280 46.403,215.921 49.736,215.923 50.093 C 215.932 52.072,223.145 50.537,224.687 48.227 C 227.780 43.597,226.074 37.990,221.126 36.520 C 217.343 35.397,217.632 34.992,216.720 42.685 M138.813 43.334 L 139.959 45.928 138.961 46.437 C 138.412 46.717,136.496 47.574,134.703 48.340 C 132.873 49.123,131.514 49.914,131.606 50.145 C 133.301 54.386,132.841 54.222,137.453 52.222 C 141.674 50.391,141.182 50.297,142.403 53.171 C 143.611 56.013,143.744 55.813,139.444 57.613 C 135.222 59.380,135.402 59.160,136.338 61.415 C 137.297 63.721,136.836 63.698,141.481 61.667 C 143.577 60.750,145.410 60.000,145.554 60.000 C 145.949 60.000,148.228 65.342,147.888 65.470 C 147.725 65.531,144.343 66.967,140.370 68.661 C 134.904 70.992,133.079 71.625,132.864 71.263 C 132.336 70.373,122.881 47.967,122.829 47.483 C 122.789 47.110,136.255 40.926,137.445 40.770 C 137.567 40.754,138.183 41.908,138.813 43.334 M268.321 42.104 C 270.352 42.813,272.590 44.179,273.768 45.430 L 274.758 46.481 273.419 49.965 C 272.102 53.391,272.071 53.433,271.503 52.566 C 268.053 47.295,263.128 46.538,259.541 50.728 C 254.379 56.759,259.588 65.360,266.838 62.778 C 268.777 62.088,268.773 62.069,267.414 65.623 C 265.786 69.878,265.811 69.860,262.400 69.329 C 252.245 67.751,247.481 58.873,251.687 49.364 C 254.487 43.032,261.815 39.834,268.321 42.104 M287.318 52.375 L 289.967 54.088 287.205 58.323 C 283.883 63.418,283.822 62.510,287.661 65.013 C 289.430 66.166,291.228 67.339,291.657 67.621 C 292.401 68.108,292.567 67.933,295.200 63.883 C 296.720 61.546,298.076 59.633,298.213 59.632 C 298.627 59.628,304.057 63.128,304.066 63.404 C 304.080 63.856,290.011 85.366,289.614 85.499 C 289.201 85.637,283.716 82.197,283.708 81.795 C 283.706 81.661,284.887 79.757,286.333 77.563 C 287.779 75.369,289.044 73.360,289.145 73.098 C 289.258 72.803,287.801 71.636,285.317 70.033 L 281.306 67.445 278.401 71.871 C 275.015 77.030,275.645 76.776,272.051 74.430 L 269.193 72.564 269.854 71.560 C 270.217 71.007,273.170 66.472,276.415 61.481 C 283.731 50.231,283.692 50.287,284.229 50.493 C 284.471 50.586,285.861 51.433,287.318 52.375 M116.028 53.796 C 116.708 54.866,117.375 55.925,117.510 56.151 C 117.659 56.398,116.255 57.487,113.971 58.896 C 111.889 60.181,110.123 61.281,110.048 61.340 C 109.852 61.494,111.784 64.729,112.239 65.010 C 112.447 65.139,114.114 64.314,115.943 63.178 C 119.994 60.660,119.659 60.657,121.268 63.229 C 122.948 65.916,123.155 65.468,119.074 67.992 C 115.021 70.499,115.241 70.099,116.675 72.360 L 117.794 74.125 119.175 73.284 C 119.934 72.821,121.698 71.717,123.095 70.829 C 124.491 69.941,125.675 69.266,125.726 69.329 C 126.115 69.817,128.547 73.804,128.616 74.067 C 128.686 74.334,118.181 81.188,115.520 82.612 C 114.941 82.922,100.281 60.598,100.809 60.210 C 101.806 59.477,114.304 51.852,114.508 51.852 C 114.664 51.852,115.348 52.727,116.028 53.796 M60.168 56.759 L 58.704 58.333 60.278 56.869 C 61.144 56.064,61.852 55.356,61.852 55.295 C 61.852 55.015,61.529 55.295,60.168 56.759 M339.444 56.667 C 340.240 57.481,340.974 58.148,341.076 58.148 C 341.178 58.148,340.610 57.481,339.815 56.667 C 339.019 55.852,338.285 55.185,338.183 55.185 C 338.081 55.185,338.649 55.852,339.444 56.667 M56.667 60.185 C 55.767 61.102,55.114 61.852,55.216 61.852 C 55.318 61.852,56.137 61.102,57.037 60.185 C 57.937 59.269,58.589 58.519,58.488 58.519 C 58.386 58.519,57.566 59.269,56.667 60.185 M342.947 60.093 C 343.856 61.060,344.647 61.852,344.707 61.852 C 344.985 61.852,344.691 61.519,343.056 59.985 L 341.296 58.333 342.947 60.093 M317.526 75.470 C 322.572 80.475,323.135 81.358,323.142 84.286 C 323.157 89.860,317.039 94.336,312.568 92.024 C 311.219 91.327,311.365 90.948,310.338 97.778 C 309.272 104.863,309.538 104.633,306.128 101.417 L 303.246 98.698 304.537 93.053 C 305.247 89.948,305.733 87.407,305.616 87.407 C 305.500 87.407,303.896 88.999,302.054 90.944 L 298.704 94.481 296.205 92.148 L 293.705 89.815 302.813 80.095 C 311.624 70.692,311.946 70.394,312.719 70.936 C 313.159 71.244,315.322 73.284,317.526 75.470 M97.718 72.650 C 102.852 75.125,106.498 81.695,105.540 86.746 C 104.814 90.577,101.158 95.363,95.040 100.490 L 93.229 102.008 91.183 99.800 C 90.058 98.586,85.959 94.193,82.074 90.037 L 75.012 82.481 77.784 79.914 C 87.159 71.231,91.496 69.651,97.718 72.650 M216.481 72.380 C 293.342 83.308,343.404 156.775,324.770 231.296 C 308.306 297.143,241.763 339.447,175.403 326.254 C 103.122 311.884,57.407 239.984,75.230 168.704 C 88.083 117.298,132.798 78.069,185.185 72.240 C 187.120 72.025,189.287 71.782,190.000 71.701 C 193.239 71.334,212.616 71.830,216.481 72.380 M195.370 74.309 C 127.435 77.305,74.351 132.438,74.351 200.000 C 74.351 269.419,130.581 325.649,200.000 325.649 C 282.071 325.649,342.497 247.526,321.679 168.333 C 306.744 111.521,253.321 71.753,195.370 74.309 M88.148 79.105 C 87.231 79.626,86.025 80.486,85.468 81.017 L 84.455 81.981 86.394 84.048 C 87.461 85.186,89.728 87.605,91.433 89.425 L 94.532 92.735 96.306 90.875 C 99.594 87.428,99.610 84.501,96.360 81.011 C 93.533 77.975,91.120 77.415,88.148 79.105 M310.750 81.658 L 308.373 84.056 309.231 84.970 C 313.234 89.231,318.620 84.946,314.771 80.562 C 313.316 78.906,313.537 78.846,310.750 81.658 M211.667 84.865 C 303.177 93.436,347.956 203.329,288.773 274.091 C 229.488 344.974,114.873 321.004,88.870 232.284 C 65.899 153.914,129.802 77.198,211.667 84.865 M71.883 90.981 C 73.752 92.449,74.007 92.789,73.620 93.295 C 73.370 93.622,72.120 95.163,70.842 96.721 C 68.097 100.067,68.123 99.928,69.978 101.419 C 71.929 102.987,71.817 103.034,74.662 99.444 C 77.595 95.743,77.076 95.891,79.726 97.999 L 81.859 99.696 80.171 101.792 C 79.243 102.945,77.996 104.490,77.401 105.225 L 76.318 106.560 77.696 107.656 C 78.454 108.258,79.274 108.870,79.517 109.015 C 79.799 109.182,81.000 107.987,82.804 105.743 C 85.264 102.686,85.729 102.270,86.250 102.668 C 86.581 102.921,87.638 103.769,88.599 104.552 L 90.346 105.975 85.275 112.247 C 82.486 115.696,80.111 118.519,79.998 118.519 C 79.885 118.519,75.548 115.081,70.360 110.880 C 65.171 106.679,60.532 102.932,60.051 102.554 L 59.176 101.865 64.265 95.562 C 67.063 92.096,69.429 89.259,69.522 89.259 C 69.616 89.259,70.678 90.034,71.883 90.981 M334.072 93.175 C 335.348 94.717,336.245 96.110,336.066 96.271 C 334.134 98.003,315.831 112.593,315.591 112.593 C 315.208 112.593,311.102 107.580,311.132 107.149 C 311.148 106.922,331.431 90.370,331.694 90.370 C 331.726 90.370,332.796 91.632,334.072 93.175 M342.484 107.470 C 345.625 108.939,348.241 113.154,348.299 116.838 L 348.333 119.046 345.834 119.461 C 342.907 119.948,342.963 119.979,342.963 117.877 C 342.963 114.102,339.571 111.383,337.949 113.857 C 337.405 114.688,337.431 115.000,338.311 118.209 C 340.100 124.737,338.965 127.712,333.869 129.849 C 327.886 132.358,320.690 126.896,320.087 119.388 C 319.761 115.318,319.868 115.185,323.478 115.185 L 326.571 115.185 326.246 116.927 C 325.266 122.171,329.343 126.418,331.968 122.886 L 332.713 121.884 331.917 118.812 C 330.689 114.074,330.591 112.928,331.275 111.291 C 333.042 107.062,337.999 105.372,342.484 107.470 M60.021 113.155 C 63.563 114.405,65.556 116.998,65.556 120.356 C 65.556 122.587,65.119 122.517,72.778 121.514 C 78.996 120.700,78.538 120.349,76.515 124.377 C 74.454 128.481,75.152 128.111,68.638 128.548 C 65.639 128.748,63.118 128.981,63.035 129.063 C 62.953 129.146,64.777 130.160,67.091 131.316 C 69.404 132.472,71.370 133.486,71.459 133.569 C 71.657 133.754,68.823 139.630,68.537 139.628 C 68.290 139.626,45.167 127.883,44.916 127.633 C 44.596 127.312,50.122 117.027,51.445 115.483 C 53.725 112.819,56.744 111.999,60.021 113.155 M54.928 120.833 C 52.386 123.635,52.417 123.752,56.233 125.780 C 59.303 127.411,59.598 127.314,60.383 124.399 C 61.270 121.104,57.136 118.401,54.928 120.833 M357.578 132.242 C 359.771 136.938,361.503 140.843,361.426 140.920 C 361.122 141.223,356.458 143.333,356.090 143.333 C 355.874 143.333,355.179 142.165,354.545 140.737 L 353.391 138.141 350.677 139.387 C 349.184 140.072,345.002 142.016,341.384 143.706 C 337.765 145.396,334.764 146.712,334.714 146.630 C 334.241 145.845,331.852 140.654,331.852 140.412 C 331.852 140.238,335.932 138.199,340.918 135.881 C 345.905 133.563,349.988 131.500,349.992 131.296 C 349.996 131.093,349.495 129.861,348.879 128.559 C 348.263 127.256,347.805 126.151,347.861 126.103 C 348.354 125.676,352.540 123.735,352.999 123.722 C 353.414 123.709,354.780 126.251,357.578 132.242 M181.179 142.785 C 180.503 143.079,179.465 143.664,178.872 144.086 L 177.794 144.854 174.501 143.723 C 169.817 142.115,167.047 142.137,165.391 143.796 C 162.982 146.209,162.918 145.969,170.400 162.567 C 174.092 170.756,177.053 177.504,176.982 177.562 C 176.910 177.621,173.397 178.132,169.175 178.698 C 164.952 179.263,161.577 179.855,161.675 180.013 C 161.772 180.171,162.789 180.829,163.935 181.475 C 170.641 185.260,167.819 186.064,154.074 184.285 C 146.249 183.272,146.527 183.234,148.199 185.086 C 152.451 189.792,150.641 190.950,141.081 189.637 C 134.116 188.680,134.372 188.594,136.254 191.281 C 139.945 196.551,138.411 197.607,129.779 195.741 C 127.423 195.231,124.641 194.815,123.595 194.815 L 121.695 194.815 123.397 196.574 C 127.632 200.950,126.648 201.566,118.519 199.628 C 107.622 197.031,104.522 197.188,108.644 200.129 C 112.622 202.968,112.726 204.057,109.018 204.068 C 106.229 204.077,93.898 201.823,89.493 200.500 C 88.285 200.138,88.946 200.883,94.630 206.292 C 132.316 242.160,158.101 250.523,178.392 233.459 C 180.764 231.464,180.510 231.413,181.892 234.167 C 185.141 240.643,189.422 245.809,193.516 248.196 C 195.530 249.370,195.830 249.712,196.739 251.875 C 197.290 253.186,198.096 255.093,198.530 256.111 L 199.318 257.963 201.460 253.519 C 203.430 249.430,203.746 248.985,205.412 247.967 C 208.987 245.780,213.699 240.124,217.373 233.609 C 218.156 232.220,218.727 231.574,219.010 231.757 C 219.249 231.911,220.778 232.926,222.407 234.013 C 245.424 249.364,270.804 241.346,304.722 208.008 C 308.236 204.554,311.058 201.676,310.994 201.611 C 310.930 201.547,309.722 201.829,308.309 202.238 C 292.104 206.928,286.053 206.819,290.759 201.922 C 292.795 199.803,292.451 199.750,284.485 200.940 C 275.387 202.300,274.103 201.804,277.619 198.288 C 278.550 197.357,279.224 196.508,279.118 196.402 C 278.941 196.225,269.693 196.786,264.815 197.270 C 260.834 197.665,260.703 196.423,264.264 192.051 L 265.923 190.013 265.007 189.783 C 264.502 189.657,262.007 189.820,259.461 190.147 C 249.071 191.480,247.356 190.830,250.232 186.649 L 251.575 184.697 245.510 185.011 C 234.351 185.588,233.579 185.139,239.066 181.266 L 240.158 180.496 231.934 180.127 C 227.410 179.924,223.606 179.655,223.479 179.529 C 223.273 179.322,225.154 174.752,233.925 154.150 C 236.962 147.014,236.957 147.119,234.371 145.322 C 230.653 142.739,226.715 142.768,222.528 145.411 L 221.114 146.304 219.165 145.204 C 214.965 142.834,210.583 142.467,207.037 144.190 L 205.370 145.000 203.181 143.889 C 200.514 142.536,196.295 142.341,193.087 143.423 C 191.184 144.065,191.163 144.064,189.198 143.149 C 186.898 142.078,183.193 141.910,181.179 142.785 M39.847 148.781 C 42.605 149.516,42.515 149.153,41.111 153.889 C 40.507 155.926,40.010 157.794,40.006 158.041 C 40.001 158.407,43.148 159.630,44.096 159.630 C 44.238 159.630,44.817 157.973,45.382 155.948 C 46.750 151.050,46.502 151.297,49.302 152.059 C 52.440 152.913,52.342 152.651,51.103 156.856 C 49.711 161.581,49.670 161.329,51.941 161.995 C 54.198 162.656,54.187 162.664,54.932 160.000 C 56.678 153.755,56.712 153.669,57.346 153.853 C 57.685 153.951,58.921 154.303,60.093 154.635 C 61.437 155.015,62.222 155.437,62.222 155.778 C 62.222 156.255,58.178 170.784,57.980 171.018 C 57.878 171.139,32.595 163.830,32.384 163.618 C 32.247 163.482,35.101 153.179,36.336 149.352 C 36.788 147.950,36.751 147.956,39.847 148.781 M364.852 151.481 C 365.393 153.213,365.730 154.742,365.603 154.878 C 365.341 155.159,341.236 162.593,340.587 162.593 C 340.221 162.593,337.939 155.983,338.223 155.746 C 338.641 155.397,362.558 148.222,363.138 148.271 C 363.716 148.320,364.075 148.993,364.852 151.481 M356.087 169.625 C 363.395 171.048,369.411 172.257,369.456 172.310 C 369.586 172.464,370.741 181.235,370.643 181.328 C 369.786 182.146,345.713 193.958,345.524 193.653 C 345.385 193.427,345.158 192.221,345.020 190.973 C 344.882 189.725,344.679 188.331,344.568 187.877 C 344.393 187.156,344.658 186.923,346.628 186.069 C 349.220 184.945,349.103 185.418,348.270 179.444 C 347.569 174.428,347.695 174.615,344.812 174.288 L 342.679 174.047 342.265 171.268 C 341.735 167.705,341.745 167.037,342.327 167.037 C 342.588 167.037,348.780 168.202,356.087 169.625 M43.828 175.556 C 50.688 176.167,56.492 176.667,56.724 176.667 C 57.091 176.667,56.917 183.577,56.541 183.953 C 56.485 184.008,54.116 183.831,51.276 183.559 C 45.126 182.970,45.740 182.521,45.264 187.955 C 44.794 193.326,44.463 192.815,48.603 193.117 C 50.492 193.255,52.852 193.468,53.847 193.590 L 55.657 193.813 55.409 197.351 C 55.272 199.297,55.124 200.919,55.080 200.954 C 55.036 200.990,49.025 200.499,41.722 199.863 L 28.444 198.707 28.704 195.187 C 29.023 190.886,28.345 191.308,34.087 191.839 C 36.759 192.086,39.058 192.178,39.195 192.043 C 39.413 191.829,40.348 182.935,40.180 182.682 C 40.145 182.629,37.840 182.394,35.058 182.160 C 29.273 181.674,29.821 182.229,30.240 177.278 C 30.391 175.481,30.639 174.444,30.917 174.444 C 31.157 174.444,36.967 174.944,43.828 175.556 M353.075 176.348 C 353.192 176.829,353.401 178.243,353.539 179.492 C 353.912 182.878,353.689 182.857,359.755 180.086 C 365.960 177.253,366.007 177.500,359.074 176.486 C 356.833 176.159,354.519 175.797,353.931 175.683 C 352.957 175.493,352.881 175.552,353.075 176.348 M359.259 199.071 C 366.083 199.570,371.708 199.983,371.759 199.989 C 371.963 200.013,371.761 205.431,371.525 206.278 C 371.239 207.303,360.920 214.096,355.741 216.669 L 352.778 218.141 355.556 218.167 C 359.179 218.202,370.263 219.028,370.518 219.283 C 370.626 219.392,370.613 220.931,370.488 222.703 L 370.260 225.926 368.186 225.901 C 367.045 225.887,361.041 225.512,354.845 225.067 L 343.578 224.259 343.665 221.605 C 343.809 217.194,343.524 217.533,351.111 212.738 C 354.880 210.357,359.046 207.891,360.370 207.260 L 362.778 206.111 357.222 205.884 C 354.167 205.758,350.104 205.531,348.194 205.378 L 344.722 205.099 344.950 203.198 C 345.076 202.152,345.180 200.588,345.182 199.722 C 345.185 198.335,345.284 198.149,346.019 198.156 C 346.477 198.160,352.435 198.572,359.259 199.071 M35.370 209.259 L 35.633 212.222 36.983 212.197 C 37.726 212.183,42.287 211.890,47.120 211.544 L 55.907 210.916 56.089 212.402 C 56.189 213.220,56.331 214.837,56.404 215.996 L 56.539 218.103 54.288 218.309 C 53.050 218.423,49.454 218.686,46.296 218.893 C 43.139 219.100,39.597 219.367,38.426 219.486 L 36.296 219.702 36.296 222.580 L 36.296 225.459 34.907 225.688 C 34.144 225.814,32.758 225.920,31.828 225.922 L 30.138 225.926 29.679 218.981 C 29.427 215.162,29.123 210.838,29.002 209.372 L 28.784 206.707 30.966 206.572 C 32.166 206.497,33.589 206.405,34.128 206.366 C 35.092 206.297,35.112 206.344,35.370 209.259 M55.584 245.157 C 57.035 246.608,56.984 247.907,55.333 251.564 C 53.684 255.217,54.004 255.616,56.852 253.454 C 61.649 249.812,62.933 249.526,65.037 251.630 C 68.415 255.007,66.257 257.593,60.061 257.593 C 54.856 257.593,54.505 257.763,56.850 259.149 C 60.858 261.517,61.960 262.390,62.464 263.598 C 63.926 267.095,58.884 270.013,56.024 267.325 C 55.264 266.612,54.227 263.825,53.540 260.648 C 53.122 258.719,52.306 259.481,51.655 262.408 C 50.382 268.126,46.687 270.295,43.887 266.967 C 41.855 264.552,42.759 262.672,47.214 260.050 C 51.043 257.796,50.903 257.593,45.524 257.593 L 41.051 257.593 40.115 256.507 C 38.834 255.021,39.092 252.847,40.724 251.389 C 42.678 249.643,44.595 250.143,48.658 253.461 C 51.478 255.763,51.848 255.342,50.194 251.712 C 47.983 246.860,48.926 244.074,52.778 244.074 C 54.189 244.074,54.698 244.270,55.584 245.157 M349.376 245.986 C 351.418 247.074,351.627 249.094,350.044 252.441 C 347.890 256.992,348.176 257.312,351.889 254.505 C 356.138 251.293,357.427 251.056,359.481 253.111 C 362.911 256.540,360.757 259.074,354.414 259.074 C 349.163 259.074,349.007 259.281,352.644 261.414 C 357.556 264.295,358.441 266.174,356.024 268.592 C 353.171 271.444,349.901 269.739,348.706 264.776 C 347.572 260.068,347.004 259.709,346.286 263.247 C 345.018 269.498,341.058 271.948,338.165 268.271 C 336.342 265.954,337.405 263.966,341.852 261.373 C 345.382 259.315,345.252 259.044,340.811 259.205 C 335.277 259.405,333.270 258.169,333.877 254.934 C 334.621 250.965,338.350 250.947,343.085 254.887 C 345.953 257.274,346.315 256.848,344.647 253.052 C 343.017 249.346,342.972 248.082,344.416 246.638 C 345.605 245.449,347.821 245.158,349.376 245.986 M81.197 283.824 C 83.689 285.043,86.412 287.873,87.608 290.486 C 89.074 293.687,89.016 293.936,86.296 296.183 C 82.617 299.223,82.632 299.219,82.649 297.071 C 82.704 290.044,75.817 287.327,70.278 292.191 C 65.827 296.098,67.831 303.370,73.611 304.289 C 75.671 304.616,75.672 304.614,72.203 307.355 L 69.223 309.711 67.252 308.402 C 53.029 298.958,65.871 276.326,81.197 283.824 M330.185 284.404 C 337.275 287.747,340.254 295.021,337.185 301.497 C 335.791 304.438,328.656 313.465,327.941 313.191 C 327.670 313.087,323.063 309.379,317.705 304.951 C 312.347 300.522,307.898 296.851,307.818 296.793 C 307.545 296.591,310.880 292.529,314.201 289.020 C 319.902 282.996,324.427 281.689,330.185 284.404 M321.588 290.546 C 320.288 291.112,316.914 294.294,317.104 294.776 C 317.236 295.110,327.990 304.074,328.258 304.074 C 328.710 304.074,331.204 299.933,331.475 298.734 C 332.550 293.967,326.068 288.598,321.588 290.546 M93.509 298.664 L 96.092 301.012 92.487 304.905 L 88.882 308.798 92.238 311.992 C 96.306 315.863,95.484 315.924,99.623 311.450 L 103.078 307.714 105.680 310.316 L 108.282 312.918 102.382 319.099 C 99.137 322.498,94.954 326.883,93.087 328.843 L 89.692 332.407 87.074 329.830 L 84.456 327.253 88.190 323.458 C 90.244 321.371,91.867 319.526,91.796 319.357 C 91.631 318.967,85.353 312.963,85.110 312.963 C 85.009 312.963,83.252 314.661,81.203 316.737 L 77.479 320.511 74.851 318.181 L 72.223 315.851 73.426 314.441 C 75.185 312.381,90.523 296.332,90.741 296.323 C 90.843 296.319,92.088 297.373,93.509 298.664 M312.287 304.896 C 326.033 311.196,321.006 331.945,305.741 331.913 C 295.269 331.891,288.912 321.419,293.579 311.879 C 296.918 305.055,305.579 301.822,312.287 304.896 M302.963 310.765 C 296.802 313.348,297.830 322.423,304.575 324.999 C 310.960 327.437,316.321 319.791,312.207 314.112 C 310.009 311.078,305.828 309.564,302.963 310.765 M113.056 316.284 C 116.517 318.501,116.698 317.267,111.791 324.876 C 105.042 335.340,104.731 336.907,108.963 339.109 C 112.018 340.699,113.466 339.441,119.571 329.899 C 121.882 326.288,123.849 323.333,123.944 323.333 C 124.038 323.333,125.430 324.177,127.038 325.208 L 129.961 327.083 128.621 329.190 C 120.346 342.199,118.410 344.719,115.741 345.961 C 109.273 348.970,97.649 340.724,98.724 333.889 C 99.083 331.612,109.023 314.474,110.000 314.449 C 110.102 314.447,111.477 315.272,113.056 316.284 M285.833 322.971 C 287.367 323.525,287.375 323.476,285.204 326.567 L 283.372 329.177 281.018 328.988 C 273.456 328.381,270.715 336.465,276.421 342.544 C 280.712 347.115,289.978 343.209,288.695 337.369 C 288.390 335.977,288.306 335.992,284.984 338.008 C 283.433 338.950,282.036 339.575,281.879 339.397 C 281.721 339.219,281.066 338.134,280.422 336.986 L 279.252 334.898 285.418 331.274 C 292.403 327.169,291.823 327.191,293.531 330.964 C 299.945 345.131,281.043 357.731,270.345 346.420 C 260.252 335.748,271.992 317.974,285.833 322.971 M139.556 331.326 C 141.907 332.434,144.386 333.766,145.066 334.285 C 150.559 338.474,147.312 348.510,140.463 348.517 C 139.394 348.518,138.519 348.680,138.519 348.877 C 138.519 349.074,138.945 351.842,139.466 355.028 C 139.988 358.214,140.339 360.895,140.247 360.987 C 139.928 361.307,132.963 357.825,132.952 357.340 C 132.923 356.041,131.874 346.566,131.746 346.437 C 131.665 346.356,130.709 348.216,129.623 350.571 C 128.536 352.925,127.514 354.934,127.352 355.034 C 126.952 355.281,121.481 352.730,121.481 352.296 C 121.481 351.986,130.822 331.610,132.075 329.185 C 132.680 328.016,132.325 327.915,139.556 331.326 M253.567 338.157 C 254.001 339.584,254.246 340.820,254.111 340.903 C 253.977 340.986,251.989 341.661,249.694 342.403 C 246.291 343.503,245.554 343.867,245.700 344.376 C 246.603 347.526,246.793 348.148,246.852 348.148 C 246.890 348.148,248.737 347.572,250.957 346.867 C 253.177 346.163,255.102 345.704,255.234 345.849 C 255.502 346.142,256.667 350.079,256.667 350.692 C 256.667 350.908,254.958 351.616,252.870 352.266 C 250.782 352.916,248.964 353.547,248.830 353.669 C 248.696 353.790,249.235 355.972,250.027 358.519 C 251.775 364.132,251.937 363.616,248.034 364.833 L 244.813 365.837 243.527 361.715 C 239.247 347.990,237.087 340.545,237.323 340.327 C 237.676 340.002,251.499 335.595,252.222 335.577 C 252.592 335.568,253.041 336.430,253.567 338.157 M134.824 339.352 L 133.400 342.407 134.756 343.046 C 139.756 345.401,143.100 339.883,138.406 337.021 C 136.593 335.915,136.353 336.071,134.824 339.352 M56.651 339.722 C 57.559 340.690,58.351 341.481,58.410 341.481 C 58.689 341.481,58.395 341.149,56.759 339.614 L 55.000 337.963 56.651 339.722 M342.963 339.815 C 342.063 340.731,341.411 341.481,341.512 341.481 C 341.614 341.481,342.434 340.731,343.333 339.815 C 344.233 338.898,344.886 338.148,344.784 338.148 C 344.682 338.148,343.863 338.898,342.963 339.815 M167.218 340.888 C 171.325 342.917,171.323 342.914,170.048 347.070 C 168.920 350.746,168.777 350.864,167.584 349.093 C 163.723 343.363,155.423 346.050,154.564 353.308 C 153.911 358.820,159.157 362.711,164.328 360.551 C 166.158 359.786,166.175 359.876,164.946 363.785 L 163.865 367.222 161.347 367.332 C 152.106 367.737,145.492 359.909,147.559 351.011 C 149.803 341.348,158.788 336.721,167.218 340.888 M60.185 343.333 C 60.981 344.148,61.715 344.815,61.817 344.815 C 61.919 344.815,61.351 344.148,60.556 343.333 C 59.760 342.519,59.026 341.852,58.924 341.852 C 58.822 341.852,59.390 342.519,60.185 343.333 M339.427 343.426 L 337.963 345.000 339.537 343.536 C 341.001 342.174,341.281 341.852,341.001 341.852 C 340.941 341.852,340.232 342.560,339.427 343.426 M178.981 342.816 C 180.159 342.954,181.107 343.249,181.102 343.477 C 181.096 343.704,180.783 345.972,180.407 348.519 C 179.604 353.936,179.236 353.457,184.677 354.064 C 189.779 354.632,189.370 354.991,190.157 349.264 C 190.921 343.714,190.341 344.294,194.594 344.829 C 197.916 345.247,198.129 345.325,197.968 346.064 C 197.874 346.497,197.024 352.435,196.080 359.259 C 195.135 366.083,194.328 371.706,194.285 371.754 C 194.132 371.927,187.588 371.013,187.360 370.786 C 187.233 370.659,187.431 368.472,187.801 365.926 C 188.171 363.380,188.484 361.030,188.496 360.704 C 188.516 360.184,179.492 358.525,179.058 358.969 C 179.002 359.027,178.619 361.381,178.208 364.202 C 177.797 367.022,177.387 369.403,177.296 369.494 C 176.816 369.974,170.370 368.763,170.366 368.192 C 170.360 367.362,173.709 343.268,173.917 342.639 C 174.039 342.272,174.474 342.191,175.469 342.349 C 176.230 342.469,177.810 342.680,178.981 342.816 M230.601 343.672 C 235.958 346.175,238.337 350.061,238.327 356.291 C 238.299 372.660,214.567 375.772,210.511 359.938 C 207.597 348.567,219.849 338.648,230.601 343.672 M221.239 349.281 C 216.293 351.729,216.079 360.327,220.893 363.149 C 224.133 365.047,228.391 364.020,230.220 360.900 C 234.123 354.240,227.785 346.040,221.239 349.281 " stroke="none" fill="#fbfbfb" fill-rule="evenodd"></path></g></svg>